<svg id="Capa_1" data-name="Capa 1" xmlns="http://www.w3.org/2000/svg" viewBox="0 0 1242 2688"><defs><style>.cls-1{fill:#212121;}.cls-2{fill:#dec9a1;}</style></defs><title>Sin título-4</title><rect class="cls-1" width="1242" height="2688"/><path class="cls-2" d="M555.74,1104.37h38.71a7.08,7.08,0,0,0,7.09-7.09V965.38a7.09,7.09,0,0,0-7.09-7.1H443.1a7.1,7.1,0,0,0-6.9,8.75l110.35,461.35a7.09,7.09,0,0,1-6.89,8.74H498.47a7.08,7.08,0,0,1-7.09-7.09V1305.55a7.09,7.09,0,0,0-7.1-7.09H445.84a7.08,7.08,0,0,0-7.09,7.09v137.07a7.09,7.09,0,0,0,7.09,7.1H596.7a7.1,7.1,0,0,0,6.9-8.74L493.46,979.78a7.1,7.1,0,0,1,6.9-8.74h41.19a7.1,7.1,0,0,1,7.1,7.1v119.14A7.08,7.08,0,0,0,555.74,1104.37Z"/><path class="cls-2" d="M686.26,1104.37H647.55a7.08,7.08,0,0,1-7.09-7.09V965.38a7.09,7.09,0,0,1,7.09-7.1H798.9a7.1,7.1,0,0,1,6.9,8.75L695.45,1428.38a7.09,7.09,0,0,0,6.89,8.74h41.19a7.08,7.08,0,0,0,7.09-7.09V1305.55a7.09,7.09,0,0,1,7.1-7.09h38.44a7.08,7.08,0,0,1,7.09,7.09v137.07a7.09,7.09,0,0,1-7.09,7.1H645.3a7.1,7.1,0,0,1-6.9-8.74l110.14-461.2a7.1,7.1,0,0,0-6.9-8.74H700.45a7.1,7.1,0,0,0-7.1,7.1v119.14A7.08,7.08,0,0,1,686.26,1104.37Z"/></svg>