<svg id="Capa_1" data-name="Capa 1" xmlns="http://www.w3.org/2000/svg" viewBox="0 0 910.95 910.95"><defs><style>.cls-1{fill:#86acdb;}.cls-2{fill:#181c36;}.cls-3{fill:#a7daeb;}.cls-4{fill:#fff;}</style></defs><title>prto</title><circle class="cls-1" cx="455.47" cy="455.47" r="435.28"/><path class="cls-2" d="M455.48,911C204.32,911,0,706.62,0,455.47S204.32,0,455.48,0,911,204.32,911,455.47,706.62,911,455.48,911Zm0-870.56C226.6,40.39,40.39,226.6,40.39,455.47S226.6,870.55,455.48,870.55s415.07-186.2,415.07-415.08S684.35,40.39,455.48,40.39Z"/><ellipse class="cls-3" cx="311.12" cy="650.8" rx="184.33" ry="143" transform="matrix(0.32, -0.95, 0.95, 0.32, -405.06, 736.99)"/><path class="cls-2" d="M288.47,842.59h0a124.63,124.63,0,0,1-40-6.55c-80.56-27.25-118-132.51-83.44-234.65C193.39,517.56,262.78,459,333.78,459a124.67,124.67,0,0,1,40,6.55c39.54,13.38,69.9,45.51,85.49,90.5,15.24,44,14.51,95.17-2.06,144.16C428.85,784,359.47,842.59,288.47,842.59Zm45.31-361.14c-61.52,0-122.17,52.28-147.49,127.13-30.58,90.42.54,182.92,69.36,206.2a102.25,102.25,0,0,0,32.82,5.37C350,820.15,410.63,767.87,436,693c15-44.3,15.73-90.33,2.12-129.62-13.27-38.29-38.65-65.49-71.48-76.59A102.15,102.15,0,0,0,333.78,481.45Z"/><ellipse class="cls-3" cx="589" cy="651.1" rx="143" ry="184.33" transform="translate(-177.57 223.06) rotate(-18.69)"/><path class="cls-2" d="M611.66,842.89c-71,0-140.39-58.55-168.75-142.37-34.54-102.15,2.88-207.41,83.44-234.66a124.67,124.67,0,0,1,40-6.55c71,0,140.38,58.55,168.74,142.38,34.54,102.14-2.88,207.41-83.43,234.65A124.49,124.49,0,0,1,611.66,842.89ZM566.35,481.75a102.25,102.25,0,0,0-32.82,5.37c-68.83,23.28-99.94,115.79-69.36,206.21,25.32,74.85,86,127.12,147.49,127.12a102.24,102.24,0,0,0,32.81-5.37c68.83-23.28,99.94-115.78,69.36-206.2C688.51,534,627.87,481.75,566.35,481.75Z"/><path class="cls-3" d="M230.92,825.07s29.26-361.44,234-341.36S682.73,815,682.73,815,536.46,952.25,230.92,825.07Z"/><path class="cls-2" d="M473.68,890.32c-76.43,0-159.56-18.46-247.07-54.89l-7.53-3.13.65-8.13c.29-3.56,7.41-88,38.24-174,44.77-124.78,117.16-186.55,208.08-177.66,88.35,8.66,155.83,71.1,195.14,180.57,29.09,81,32.62,158.21,32.75,161.45l.22,5.14-3.75,3.52C687.49,826,617.2,890.32,473.68,890.32ZM242.93,817.87c81.92,33.19,159.52,50,230.75,50,116.46,0,181.55-45.14,197.49-57.78-3-40.75-29.09-297.75-207.31-315.23-5.1-.5-10.19-.75-15.13-.75C286.79,494.12,248.63,767,242.93,817.87Z"/><circle class="cls-3" cx="455.25" cy="342.84" r="167.34"/><path class="cls-2" d="M455.25,521.4c-98.45,0-178.55-80.1-178.55-178.56s80.1-178.56,178.55-178.56,178.56,80.1,178.56,178.56S553.71,521.4,455.25,521.4Zm0-334.67c-86.08,0-156.11,70-156.11,156.11S369.17,499,455.25,499s156.12-70,156.12-156.12S541.34,186.73,455.25,186.73Z"/><path class="cls-4" d="M317.29,328.57c-.31,0-.62,0-.93-.05a9,9,0,0,1-8-9.85c.31-3,8.31-73.73,75-104.07a9,9,0,0,1,7.43,16.34c-57.4,26.12-64.49,88.94-64.55,89.57A9,9,0,0,1,317.29,328.57Z"/><path class="cls-4" d="M187.94,710.62a9,9,0,0,1-8.93-8.2c-12.24-140.79,98-203.67,99.1-204.29a9,9,0,0,1,8.73,15.7c-4.14,2.31-101.16,58.12-89.95,187a9,9,0,0,1-8.16,9.72A7,7,0,0,1,187.94,710.62Z"/><circle class="cls-4" cx="313.93" cy="353.81" r="8.54"/><path class="cls-4" d="M121.2,314.08A20.21,20.21,0,0,1,101.88,288c2-6.66,52-163.71,246.53-217.75a20.2,20.2,0,0,1,10.81,38.92c-72.28,20.08-131,58.12-174.5,113.07-32.69,41.29-44.11,77.24-44.22,77.6A20.27,20.27,0,0,1,121.2,314.08Z"/></svg>